<mxfile host="app.diagrams.net" modified="2023-05-17T12:06:58.293Z" agent="Mozilla/5.0 (Macintosh; Intel Mac OS X 10.15; rv:109.0) Gecko/20100101 Firefox/113.0" etag="rMwzkAinHJ3-Ru3UZZUb" version="21.3.2" type="github">
  <diagram name="Page-1" id="a7904f86-f2b4-8e86-fa97-74104820619b">
    <mxGraphModel dx="1026" dy="686" grid="1" gridSize="10" guides="1" tooltips="1" connect="1" arrows="1" fold="1" page="1" pageScale="1" pageWidth="1100" pageHeight="850" background="none" math="0" shadow="0">
      <root>
        <mxCell id="0" />
        <mxCell id="1" parent="0" />
        <mxCell id="24794b860abc3c2d-1" value="&lt;p style=&quot;margin: 0px ; margin-top: 4px ; text-align: center ; text-decoration: underline&quot;&gt;&lt;b&gt;T-Shirt Rot: CyProduct&lt;br&gt;&lt;/b&gt;&lt;/p&gt;&lt;hr&gt;&lt;div&gt;EAN: 142331234&lt;/div&gt;&lt;div&gt;Marke: Trek&lt;/div&gt;&lt;div&gt;Grösse: L&lt;/div&gt;&lt;div&gt;Farbe: Rot&lt;/div&gt;&lt;div&gt;&lt;hr&gt;&lt;font color=&quot;#7ea6e0&quot;&gt;ArtikelNR: 525292 (Zusatz, ArticleID)&lt;/font&gt;&lt;/div&gt;&lt;div&gt;&lt;font color=&quot;#ff3333&quot;&gt;Hersteller-NR : 100001&lt;/font&gt;&lt;/div&gt;&lt;div&gt;&lt;font color=&quot;#00ff00&quot;&gt;VariantGroupID 1&lt;/font&gt;&lt;/div&gt;&lt;div&gt;&lt;font color=&quot;#ebebeb&quot;&gt;LocationID: 10&lt;br&gt;&lt;/font&gt;&lt;/div&gt;&lt;div&gt;&lt;br&gt;&lt;/div&gt;&lt;div&gt;&lt;br&gt;&lt;/div&gt;&lt;div&gt;&lt;br&gt;&lt;/div&gt;" style="verticalAlign=top;align=left;overflow=fill;fontSize=12;fontFamily=Helvetica;html=1;rounded=0;shadow=0;comic=0;labelBackgroundColor=none;strokeWidth=1" parent="1" vertex="1">
          <mxGeometry x="50" y="80" width="220" height="160" as="geometry" />
        </mxCell>
        <mxCell id="NGnspXkqZ9vbO3NdTMca-4" value="&lt;p style=&quot;margin: 0px ; margin-top: 4px ; text-align: center ; text-decoration: underline&quot;&gt;&lt;b&gt;T-Shirt Rot: CyProduct&lt;br&gt;&lt;/b&gt;&lt;/p&gt;&lt;hr&gt;&lt;div&gt;EAN: 142331235&lt;/div&gt;&lt;div&gt;Marke: Trek&lt;/div&gt;&lt;div&gt;Grösse: M&lt;br&gt;&lt;/div&gt;&lt;div&gt;Farbe: Rot&lt;/div&gt;&lt;div&gt;&lt;hr&gt;&lt;font color=&quot;#7ea6e0&quot;&gt;ArtikelNR: 525292 (Zusatz, ArticleID)&lt;/font&gt;&lt;br&gt;&lt;/div&gt;&lt;div&gt;Hersteller-NR : 100002 (SizeID)&lt;br&gt;&lt;/div&gt;&lt;div&gt;&lt;font color=&quot;#00ff00&quot;&gt;VariantGroupID 1&lt;/font&gt;&lt;/div&gt;&lt;div&gt;LocationID: 14&lt;br&gt;&lt;/div&gt;&lt;div&gt;&lt;br&gt;&lt;/div&gt;&lt;div&gt;&lt;br&gt;&lt;/div&gt;&lt;div&gt;&lt;br&gt;&lt;/div&gt;" style="verticalAlign=top;align=left;overflow=fill;fontSize=12;fontFamily=Helvetica;html=1;rounded=0;shadow=0;comic=0;labelBackgroundColor=none;strokeWidth=1" vertex="1" parent="1">
          <mxGeometry x="360" y="80" width="220" height="160" as="geometry" />
        </mxCell>
        <mxCell id="NGnspXkqZ9vbO3NdTMca-5" value="&lt;p style=&quot;margin: 0px ; margin-top: 4px ; text-align: center ; text-decoration: underline&quot;&gt;&lt;b&gt;T-Shirt Grün: CyProduct&lt;br&gt;&lt;/b&gt;&lt;/p&gt;&lt;hr&gt;&lt;div&gt;EAN: 142331247&lt;/div&gt;&lt;div&gt;Marke: Trek&lt;/div&gt;&lt;div&gt;Grösse: M&lt;br&gt;&lt;/div&gt;&lt;div&gt;Farbe: Grün&lt;/div&gt;&lt;div&gt;&lt;hr&gt;ArtikelNR: 525295 (Zusatz, ArticleID)&lt;br&gt;&lt;/div&gt;&lt;div&gt;Hersteller-NR : 100006&lt;/div&gt;&lt;div&gt;&lt;font color=&quot;#00ff00&quot;&gt;VariantGroupID 1&lt;/font&gt;&lt;/div&gt;&lt;div&gt;LocationID: 10&lt;br&gt;&lt;/div&gt;&lt;div&gt;&lt;br&gt;&lt;/div&gt;&lt;div&gt;&lt;br&gt;&lt;/div&gt;&lt;div&gt;&lt;br&gt;&lt;/div&gt;" style="verticalAlign=top;align=left;overflow=fill;fontSize=12;fontFamily=Helvetica;html=1;rounded=0;shadow=0;comic=0;labelBackgroundColor=none;strokeWidth=1" vertex="1" parent="1">
          <mxGeometry x="360" y="260" width="220" height="160" as="geometry" />
        </mxCell>
        <mxCell id="NGnspXkqZ9vbO3NdTMca-7" value="&lt;p style=&quot;margin: 0px ; margin-top: 4px ; text-align: center ; text-decoration: underline&quot;&gt;&lt;b&gt;T-Shirt Rot: CyProduct&lt;br&gt;&lt;/b&gt;&lt;/p&gt;&lt;hr&gt;&lt;div&gt;EAN: 142331234&lt;/div&gt;&lt;div&gt;Marke: Trek&lt;/div&gt;&lt;div&gt;Grösse: L&lt;/div&gt;&lt;div&gt;Farbe: Rot&lt;/div&gt;&lt;div&gt;&lt;hr&gt;&lt;font color=&quot;#7ea6e0&quot;&gt;ArtikelNR: 525292 (Zusatz, ArticleID)&lt;/font&gt;&lt;/div&gt;&lt;div&gt;&lt;font color=&quot;#ff3333&quot;&gt;Hersteller-NR : 100001&lt;/font&gt;&lt;/div&gt;&lt;div&gt;&lt;font color=&quot;#00ff00&quot;&gt;VariantGroupID 1&lt;/font&gt;&lt;/div&gt;&lt;div&gt;&lt;font color=&quot;#ebebeb&quot;&gt;LocationID: 14&lt;/font&gt;&lt;br&gt;&lt;/div&gt;&lt;div&gt;&lt;br&gt;&lt;/div&gt;&lt;div&gt;&lt;br&gt;&lt;/div&gt;&lt;div&gt;&lt;br&gt;&lt;/div&gt;" style="verticalAlign=top;align=left;overflow=fill;fontSize=12;fontFamily=Helvetica;html=1;rounded=0;shadow=0;comic=0;labelBackgroundColor=none;strokeWidth=1" vertex="1" parent="1">
          <mxGeometry x="50" y="260" width="220" height="160" as="geometry" />
        </mxCell>
      </root>
    </mxGraphModel>
  </diagram>
</mxfile>
